<?xml version="1.0" standalone="no"?>
<!DOCTYPE svg PUBLIC "-//W3C//DTD SVG 20010904//EN"
 "http://www.w3.org/TR/2001/REC-SVG-20010904/DTD/svg10.dtd">
<svg version="1.0" xmlns="http://www.w3.org/2000/svg"
 width="156.000000pt" height="156.000000pt" viewBox="0 0 156.000000 156.000000"
 preserveAspectRatio="xMidYMid meet">
<metadata>
Created by potrace 1.14, written by Peter Selinger 2001-2017
</metadata>
<g transform="translate(0.000000,156.000000) scale(0.100000,-0.100000)"
fill="#000000" stroke="none">
<path d="M0 780 l0 -780 780 0 780 0 0 780 0 780 -780 0 -780 0 0 -780z m831
548 c14 -7 36 -28 49 -47 24 -38 25 -23 -3 -249 -7 -57 -11 -105 -8 -107 4 -5
64 36 69 47 2 4 10 8 18 8 8 0 14 5 14 10 0 6 7 10 15 10 8 0 15 3 15 8 0 4
27 25 60 46 33 22 60 43 60 48 0 4 9 8 19 8 11 0 23 5 26 10 15 25 90 1 122
-40 7 -8 13 -37 13 -63 0 -66 -22 -88 -155 -147 -27 -12 -60 -26 -72 -31 -41
-16 -78 -33 -102 -48 -23 -15 -23 -15 35 -43 33 -15 62 -28 67 -28 4 0 29 -10
55 -21 26 -12 61 -28 79 -35 18 -8 46 -26 63 -40 26 -23 30 -32 30 -77 -1 -59
-11 -77 -58 -101 -46 -24 -104 -9 -158 39 -35 30 -55 45 -64 45 -6 0 -10 5
-10 10 0 6 -6 10 -14 10 -8 0 -16 3 -18 8 -1 4 -24 24 -51 45 -60 49 -64 41
-47 -96 25 -206 25 -209 -8 -245 -26 -28 -36 -32 -82 -32 -44 0 -57 4 -76 26
-28 30 -30 74 -12 251 9 87 9 116 0 125 -9 9 -12 9 -12 0 0 -6 -12 -18 -27
-26 -16 -8 -43 -28 -62 -45 -19 -16 -46 -35 -60 -43 -14 -7 -33 -21 -42 -30
-17 -19 -96 -57 -117 -58 -25 0 -82 32 -82 46 0 8 -4 14 -10 14 -5 0 -10 23
-10 51 0 44 4 56 29 79 16 16 44 35 62 43 19 8 55 24 81 36 26 11 51 21 55 21
5 0 34 13 66 28 56 27 57 28 37 45 -11 9 -25 17 -30 17 -6 0 -18 4 -28 9 -23
12 -111 51 -142 63 -98 39 -130 73 -130 134 0 42 4 52 36 81 42 38 80 43 122
16 35 -22 133 -94 150 -110 6 -6 21 -15 32 -18 11 -3 20 -10 20 -14 0 -4 18
-18 41 -30 38 -22 41 -22 36 -5 -3 11 -11 73 -17 139 -7 66 -14 124 -17 128
-13 21 19 93 50 114 37 25 63 28 98 11z"/>
</g>
</svg>
